<?xml version="1.0" encoding="utf-8"?>
<!-- Generator: Adobe Illustrator 25.1.0, SVG Export Plug-In . SVG Version: 6.00 Build 0)  -->
<svg version="1.1" id="Ebene_1" focusable="false" xmlns="http://www.w3.org/2000/svg" xmlns:xlink="http://www.w3.org/1999/xlink"
	 x="0px" y="0px" width="512px" height="512px" viewBox="0 0 512 512" style="enable-background:new 0 0 512 512;"
	 xml:space="preserve">
<style type="text/css">
	.st0{fill:#FFFFFF;}
</style>
<path class="st0" d="M370.4,192.2C359,172.3,337.8,160,314.9,160H197.1c-23,0-44.2,12.3-55.6,32.2L36.2,376.6
	c-2.8,4.8-4.2,10.3-4.2,15.9V448c0,17.7,14.3,32,32,32h384c17.7,0,32-14.3,32-32v-55.5c0-5.6-1.5-11-4.2-15.9L370.4,192.2z M256,384
	c-39.8,0-72-32.2-72-72s32.2-72,72-72s72,32.2,72,72S295.8,384,256,384z M506.2,123C436.8,65,347.4,32,256,32S75.2,65,5.8,123
	c-3.7,3.1-5.8,7.8-5.8,12.6V192c0,8.8,7.2,16,16,16h70.1c6.1,0,11.6-3.4,14.3-8.9L128,128c39.9-17.3,83.2-24,128-24
	c44.8,0,88.1,6.7,128,24l27.6,71.1c2.7,5.4,8.2,8.8,14.3,8.9H496c8.8,0,16-7.2,16-16v-56.4C512,130.8,509.9,126.1,506.2,123z"/>
</svg>
